<svg xmlns="http://www.w3.org/2000/svg" xmlns:xlink="http://www.w3.org/1999/xlink" width="362" zoomAndPan="magnify" viewBox="0 0 271.5 179.999997" height="240" preserveAspectRatio="xMidYMid meet" version="1.0"><defs><clipPath id="4a8fcaaea7"><path d="M 63 20.269531 L 211 20.269531 L 211 159 L 63 159 Z M 63 20.269531 " clip-rule="nonzero"/></clipPath><clipPath id="30c604d9b6"><path d="M 47.421875 0.164062 L 226.34375 0.164062 L 226.34375 179.085938 L 47.421875 179.085938 Z M 47.421875 0.164062 " clip-rule="nonzero"/></clipPath><clipPath id="582eda8016"><path d="M 32.675781 63.441406 L 241.539062 63.441406 L 241.539062 115.847656 L 32.675781 115.847656 Z M 32.675781 63.441406 " clip-rule="nonzero"/></clipPath><clipPath id="bac7cf7fee"><path d="M 0 77.101562 L 28.839844 77.101562 L 28.839844 102.398438 L 0 102.398438 Z M 0 77.101562 " clip-rule="nonzero"/></clipPath><clipPath id="d127671835"><path d="M 1.140625 81.222656 C -1.191406 85.070312 0.453125 88.8125 2.519531 90.800781 L 14.605469 102.398438 L 26.4375 90.84375 C 28.359375 88.707031 29.097656 86.4375 28.6875 83.914062 C 28.121094 80.421875 25.246094 77.710938 21.6875 77.324219 C 19.507812 77.089844 17.402344 77.707031 15.757812 79.070312 C 15.316406 79.4375 14.917969 79.851562 14.574219 80.296875 C 14.164062 79.789062 13.6875 79.324219 13.144531 78.910156 C 11.253906 77.472656 8.847656 76.902344 6.535156 77.347656 C 4.34375 77.769531 2.378906 79.183594 1.140625 81.222656 Z M 1.140625 81.222656 " clip-rule="nonzero"/></clipPath><clipPath id="3b27099a4d"><path d="M 245.179688 77.199219 L 270.375 77.199219 L 270.375 102.398438 L 245.179688 102.398438 Z M 245.179688 77.199219 " clip-rule="nonzero"/></clipPath><clipPath id="b0a8d90c0e"><path d="M 257.777344 77.199219 C 250.820312 77.199219 245.179688 82.839844 245.179688 89.800781 C 245.179688 96.757812 250.820312 102.398438 257.777344 102.398438 C 264.734375 102.398438 270.375 96.757812 270.375 89.800781 C 270.375 82.839844 264.734375 77.199219 257.777344 77.199219 Z M 257.777344 77.199219 " clip-rule="nonzero"/></clipPath></defs><g clip-path="url(#4a8fcaaea7)"><path fill="#d9d9d9" d="M 122.726562 20.742188 C 113.171875 20.742188 105.210938 24.457031 99.902344 30.828125 C 95.65625 36.136719 93.003906 42.503906 92.472656 49.933594 C 82.917969 50.996094 75.488281 58.957031 75.488281 69.042969 C 75.488281 72.757812 76.550781 75.941406 78.140625 78.59375 C 69.648438 79.65625 63.28125 86.554688 63.28125 95.046875 C 63.28125 101.949219 67.527344 107.785156 72.835938 110.441406 C 71.242188 113.09375 70.179688 115.746094 70.179688 119.460938 C 70.179688 124.769531 72.835938 129.015625 76.550781 131.667969 C 79.203125 133.792969 81.855469 134.855469 85.042969 135.914062 C 86.101562 141.753906 89.289062 146.53125 93.535156 150.246094 C 98.839844 154.492188 105.742188 157.675781 112.640625 158.207031 C 119.539062 159.269531 126.441406 158.207031 132.277344 153.960938 C 133.871094 152.898438 135.460938 151.308594 137.054688 149.183594 C 138.648438 151.308594 140.238281 152.898438 142.363281 153.960938 C 148.199219 157.675781 155.101562 158.738281 162 157.675781 C 168.898438 156.613281 175.269531 153.960938 180.578125 149.714844 C 184.824219 146 188.007812 141.222656 189.070312 135.386719 C 192.253906 134.855469 195.4375 133.261719 197.558594 131.140625 C 200.746094 128.484375 203.929688 124.238281 203.929688 118.933594 C 203.929688 115.746094 202.867188 112.5625 201.277344 109.910156 C 207.113281 107.253906 210.828125 101.417969 210.828125 94.515625 C 210.828125 86.027344 204.460938 79.125 195.96875 78.0625 C 197.558594 75.410156 198.621094 71.695312 198.621094 68.511719 C 198.621094 58.425781 191.191406 50.464844 181.105469 49.402344 C 180.578125 41.972656 177.921875 35.605469 173.675781 30.296875 C 168.371094 23.925781 160.40625 20.210938 150.855469 20.210938 C 146.609375 20.210938 142.363281 21.804688 139.179688 24.457031 C 138.117188 24.988281 137.585938 25.519531 136.523438 26.582031 C 135.992188 26.050781 135.460938 25.519531 134.933594 24.988281 C 131.746094 22.335938 127.5 20.742188 122.726562 20.742188 Z M 180.046875 78.59375 L 170.492188 78.59375 C 164.652344 78.59375 159.347656 81.25 156.160156 84.433594 C 152.976562 88.148438 151.386719 92.925781 151.386719 97.703125 C 151.386719 102.480469 152.976562 107.253906 156.160156 110.96875 C 159.347656 114.6875 164.652344 116.808594 170.492188 116.808594 C 176.859375 116.808594 176.859375 107.253906 170.492188 107.253906 C 166.777344 107.253906 164.652344 106.195312 163.0625 104.601562 C 161.46875 103.007812 160.9375 100.355469 160.9375 97.703125 C 160.9375 95.046875 162 92.925781 163.0625 90.800781 C 164.652344 89.210938 166.777344 88.148438 170.492188 88.148438 C 178.453125 88.148438 186.414062 88.148438 194.375 88.148438 C 198.621094 88.148438 201.804688 91.332031 201.804688 95.578125 C 201.804688 99.824219 198.621094 103.007812 194.375 103.007812 L 186.945312 103.007812 C 180.578125 103.007812 180.578125 112.5625 186.945312 112.5625 C 191.191406 112.5625 194.375 115.746094 194.375 119.992188 C 194.375 121.585938 193.316406 123.179688 191.722656 124.769531 C 189.597656 126.363281 186.945312 127.421875 184.824219 127.421875 C 178.453125 127.421875 174.207031 125.832031 168.898438 126.363281 C 163.59375 126.363281 158.285156 128.484375 152.976562 133.792969 C 148.199219 138.039062 155.101562 145.46875 159.878906 140.691406 C 164.125 136.445312 166.246094 135.914062 169.429688 135.914062 C 172.085938 135.914062 175.269531 136.445312 179.515625 136.976562 C 178.453125 139.632812 176.859375 141.753906 174.738281 143.875 C 171.023438 147.0625 166.246094 149.183594 160.9375 149.714844 C 155.632812 150.246094 150.855469 149.714844 147.671875 147.59375 C 144.484375 145.46875 142.363281 142.285156 141.832031 135.914062 L 141.832031 55.773438 C 141.832031 53.117188 139.707031 50.996094 137.054688 50.996094 C 134.402344 50.996094 132.277344 53.117188 132.277344 55.773438 L 132.277344 133.792969 C 132.277344 140.160156 130.15625 143.347656 126.972656 146 C 123.785156 148.121094 119.007812 149.183594 113.703125 148.652344 C 108.394531 148.121094 103.617188 146 99.902344 142.816406 C 97.78125 140.691406 96.1875 138.570312 95.125 135.914062 C 99.371094 135.386719 103.085938 134.855469 105.210938 134.855469 C 108.394531 134.855469 110.515625 135.386719 114.761719 139.628906 C 119.539062 144.40625 126.441406 137.507812 121.664062 132.730469 C 116.355469 127.421875 110.515625 125.300781 105.742188 125.300781 C 100.433594 125.300781 96.1875 126.363281 89.816406 126.363281 C 87.164062 126.363281 84.511719 125.300781 82.917969 123.707031 C 80.796875 122.117188 80.265625 120.523438 80.265625 118.933594 C 80.265625 114.6875 83.449219 111.5 87.695312 111.5 C 94.0625 111.5 94.0625 101.949219 87.695312 101.949219 L 79.734375 101.949219 C 75.488281 101.949219 72.304688 98.761719 72.304688 94.515625 C 72.304688 90.273438 75.488281 87.085938 79.734375 87.085938 C 87.695312 87.085938 95.65625 87.085938 103.617188 87.085938 C 107.332031 87.085938 109.457031 88.148438 111.046875 89.742188 C 112.640625 91.332031 113.171875 93.988281 113.171875 96.640625 C 113.171875 99.292969 112.109375 101.417969 111.046875 103.539062 C 109.457031 105.132812 107.332031 106.195312 103.617188 106.195312 C 97.25 106.195312 97.25 115.746094 103.617188 115.746094 C 109.457031 115.746094 114.761719 113.09375 117.949219 109.910156 C 121.132812 106.195312 122.726562 101.417969 122.726562 96.640625 C 122.726562 91.863281 121.132812 87.085938 117.949219 83.371094 C 114.761719 79.65625 109.457031 77.53125 103.617188 77.53125 L 94.0625 77.53125 C 88.757812 77.53125 84.511719 73.289062 84.511719 67.980469 C 84.511719 63.203125 87.695312 59.488281 92.472656 58.425781 C 93.535156 62.140625 95.65625 65.855469 98.308594 68.511719 C 102.554688 73.816406 110.515625 66.386719 105.210938 61.609375 C 103.085938 59.488281 101.496094 56.304688 101.496094 53.117188 C 101.496094 46.21875 103.617188 39.851562 107.332031 35.605469 C 111.046875 31.359375 115.824219 28.703125 123.253906 28.703125 C 125.910156 28.703125 128.5625 29.765625 130.15625 31.359375 C 132.277344 32.949219 132.808594 34.542969 132.808594 36.136719 C 132.277344 43.035156 142.894531 43.035156 142.363281 36.136719 C 142.363281 34.011719 144.484375 31.890625 145.546875 31.359375 C 147.671875 29.765625 149.792969 29.234375 151.914062 29.234375 C 159.347656 29.234375 164.125 31.890625 167.839844 36.136719 C 171.554688 40.382812 173.675781 46.21875 173.675781 53.648438 C 173.675781 56.835938 172.085938 60.019531 169.960938 62.140625 C 164.652344 66.386719 172.085938 74.347656 176.859375 69.042969 C 179.515625 66.386719 181.636719 62.671875 182.699219 58.957031 C 187.476562 59.488281 190.660156 63.734375 190.660156 68.511719 C 189.597656 74.347656 185.351562 78.59375 180.046875 78.59375 Z M 122.726562 39.851562 C 120.070312 39.851562 117.949219 41.972656 117.949219 44.625 L 117.949219 50.464844 C 116.355469 49.933594 114.761719 49.402344 113.171875 49.402344 C 113.171875 49.402344 112.640625 49.402344 112.640625 49.402344 C 106.273438 49.933594 106.800781 59.488281 113.171875 58.957031 C 116.355469 58.957031 116.355469 59.488281 116.886719 61.078125 C 117.417969 62.671875 117.949219 65.855469 117.949219 68.511719 C 117.949219 74.878906 127.5 74.878906 127.5 68.511719 L 127.5 44.625 C 127.5 41.972656 125.378906 39.851562 122.726562 39.851562 Z M 151.386719 39.851562 C 148.730469 39.851562 146.609375 41.972656 146.609375 44.625 L 146.609375 68.511719 C 146.609375 74.878906 156.160156 74.878906 156.160156 68.511719 C 156.160156 65.855469 156.160156 63.203125 157.222656 61.078125 C 157.753906 59.488281 157.753906 58.957031 160.9375 58.957031 C 167.308594 58.957031 167.308594 49.402344 160.9375 49.402344 C 159.347656 49.402344 157.753906 49.933594 156.160156 50.464844 L 156.160156 44.625 C 156.160156 41.972656 154.039062 39.851562 151.386719 39.851562 Z M 151.386719 39.851562 " fill-opacity="1" fill-rule="nonzero"/></g><g clip-path="url(#30c604d9b6)"><path fill="#d9d9d9" d="M 137.050781 179.425781 C 186.464844 179.425781 226.679688 139.210938 226.679688 89.796875 C 226.679688 40.378906 186.464844 0.164062 137.050781 0.164062 C 87.636719 0.164062 47.421875 40.378906 47.421875 89.796875 C 47.421875 139.210938 87.636719 179.425781 137.050781 179.425781 Z M 137.050781 6.886719 C 182.796875 6.886719 219.960938 44.101562 219.960938 89.796875 C 219.960938 135.488281 182.746094 172.707031 137.050781 172.707031 C 91.359375 172.707031 54.140625 135.539062 54.140625 89.796875 C 54.140625 44.050781 91.304688 6.886719 137.050781 6.886719 Z M 137.050781 6.886719 " fill-opacity="1" fill-rule="nonzero"/></g><g clip-path="url(#582eda8016)"><path fill="#64a744" d="M 183.976562 77.140625 L 187.757812 84.859375 C 188.671875 86.632812 189.542969 88.40625 190.414062 90.222656 C 190.664062 90.789062 191.054688 91.238281 191.589844 91.5625 C 192.121094 91.886719 192.699219 92.03125 193.320312 91.996094 L 238.425781 91.996094 C 240.335938 91.996094 241.539062 90.925781 241.539062 89.316406 C 241.539062 87.707031 240.292969 86.589844 238.425781 86.589844 L 195.773438 86.589844 C 195.429688 86.628906 195.117188 86.550781 194.828125 86.367188 C 194.539062 86.179688 194.339844 85.925781 194.234375 85.601562 L 186.71875 70.332031 C 186.179688 69.214844 185.390625 68.472656 184.101562 68.433594 C 182.8125 68.390625 182.023438 69.175781 181.445312 70.25 L 164.457031 101.652344 C 164.332031 101.941406 164.125 102.191406 163.917969 102.5625 L 163.085938 101.035156 L 156.9375 88.570312 C 156.8125 88.257812 156.640625 87.976562 156.421875 87.71875 C 156.207031 87.460938 155.953125 87.242188 155.664062 87.0625 C 155.378906 86.886719 155.070312 86.757812 154.742188 86.675781 C 154.414062 86.59375 154.078125 86.566406 153.742188 86.589844 L 134.679688 86.589844 C 134.347656 86.609375 134.035156 86.542969 133.742188 86.386719 C 133.453125 86.230469 133.222656 86.011719 133.058594 85.722656 C 130.066406 81.390625 127.078125 77.058594 124.046875 72.765625 C 122.46875 70.535156 120.058594 70.621094 118.6875 72.972656 C 116.28125 77.179688 113.828125 81.390625 111.460938 85.601562 C 111.304688 85.933594 111.066406 86.1875 110.746094 86.371094 C 110.425781 86.550781 110.085938 86.625 109.71875 86.589844 L 100.414062 86.589844 C 98.503906 86.632812 97.507812 87.457031 97.257812 89.316406 C 96.84375 92.863281 96.425781 96.414062 95.84375 100.042969 L 95.472656 99.09375 L 84.382812 66.285156 C 83.757812 64.347656 82.222656 63.480469 80.601562 64.140625 C 78.984375 64.800781 79.148438 65.335938 78.859375 66.328125 C 76.867188 72.683594 74.832031 78.996094 72.835938 85.394531 C 72.546875 86.34375 72.128906 86.632812 71.132812 86.632812 C 59.421875 86.578125 47.738281 86.578125 36.082031 86.632812 C 35.523438 86.609375 34.984375 86.691406 34.460938 86.878906 C 34.1875 86.988281 33.9375 87.140625 33.714844 87.332031 C 33.492188 87.523438 33.304688 87.746094 33.160156 88.003906 C 33.011719 88.257812 32.910156 88.527344 32.855469 88.816406 C 32.800781 89.105469 32.796875 89.394531 32.839844 89.6875 C 32.886719 89.988281 32.980469 90.273438 33.121094 90.542969 C 33.261719 90.8125 33.445312 91.050781 33.664062 91.261719 C 33.886719 91.46875 34.136719 91.636719 34.417969 91.765625 C 34.695312 91.890625 34.988281 91.96875 35.292969 91.996094 L 73.792969 91.996094 C 75.867188 91.996094 76.617188 91.460938 77.238281 89.480469 L 81.226562 76.890625 L 81.683594 75.53125 C 82.015625 76.355469 82.265625 76.976562 82.472656 77.636719 C 86.460938 89.398438 90.445312 101.199219 94.390625 112.960938 C 94.515625 113.25 94.558594 113.5 94.683594 113.746094 C 95.179688 115.066406 96.261719 115.808594 97.546875 115.6875 C 97.871094 115.65625 98.175781 115.574219 98.46875 115.433594 C 98.761719 115.296875 99.019531 115.109375 99.242188 114.878906 C 99.46875 114.648438 99.644531 114.386719 99.777344 114.089844 C 99.90625 113.796875 99.980469 113.488281 100 113.167969 C 100.703125 107.183594 101.410156 101.160156 102.074219 95.175781 C 102.199219 94.421875 102.28125 93.664062 102.324219 92.90625 C 102.367188 92.203125 102.65625 91.996094 103.363281 91.996094 C 106.230469 92.039062 109.09375 91.957031 112 92.039062 C 112.652344 92.074219 113.257812 91.929688 113.816406 91.597656 C 114.378906 91.265625 114.796875 90.808594 115.074219 90.222656 C 117.027344 86.796875 119.019531 83.371094 121.015625 79.945312 L 121.636719 78.957031 L 122.34375 79.863281 C 124.753906 83.371094 127.242188 86.839844 129.652344 90.386719 C 129.972656 90.921875 130.410156 91.339844 130.960938 91.632812 C 131.511719 91.929688 132.101562 92.066406 132.726562 92.039062 L 151.414062 92.039062 C 152.289062 91.996094 152.703125 92.328125 153.035156 93.070312 C 155.734375 98.558594 158.433594 104.046875 161.175781 109.535156 C 161.964844 111.144531 163.460938 111.847656 164.789062 111.144531 C 165.472656 110.78125 166 110.257812 166.367188 109.578125 C 171.476562 100.25 176.5 90.882812 181.566406 81.554688 C 182.316406 80.113281 183.105469 78.75 183.976562 77.140625 Z M 183.976562 77.140625 " fill-opacity="1" fill-rule="nonzero"/></g><g clip-path="url(#bac7cf7fee)"><g clip-path="url(#d127671835)"><path fill="#ff3131" d="M 0 77.199219 L 28.839844 77.199219 L 28.839844 102.398438 L 0 102.398438 Z M 0 77.199219 " fill-opacity="1" fill-rule="nonzero"/></g></g><g clip-path="url(#3b27099a4d)"><g clip-path="url(#b0a8d90c0e)"><path fill="#3e60f9" d="M 245.179688 77.199219 L 270.375 77.199219 L 270.375 102.398438 L 245.179688 102.398438 Z M 245.179688 77.199219 " fill-opacity="1" fill-rule="nonzero"/></g></g></svg>