<svg xmlns="http://www.w3.org/2000/svg" xmlns:xlink="http://www.w3.org/1999/xlink" width="333" zoomAndPan="magnify" viewBox="0 0 249.75 249.749984" height="333" preserveAspectRatio="xMidYMid meet" version="1.0"><defs><clipPath id="f0bdaaa97c"><path d="M 0 0 L 248.785156 0 L 248.785156 248.785156 L 0 248.785156 Z M 0 0 " clip-rule="nonzero"/></clipPath><clipPath id="98e3f51e3b"><path d="M 124.394531 0 C 55.691406 0 0 55.691406 0 124.394531 C 0 193.09375 55.691406 248.785156 124.394531 248.785156 C 193.09375 248.785156 248.785156 193.09375 248.785156 124.394531 C 248.785156 55.691406 193.09375 0 124.394531 0 Z M 124.394531 0 " clip-rule="nonzero"/></clipPath><clipPath id="9169eaa0bd"><path d="M 50 54.804688 L 199 54.804688 L 199 194 L 50 194 Z M 50 54.804688 " clip-rule="nonzero"/></clipPath><clipPath id="fcd92ca15e"><path d="M 34.683594 34.683594 L 213.753906 34.683594 L 213.753906 213.753906 L 34.683594 213.753906 Z M 34.683594 34.683594 " clip-rule="nonzero"/></clipPath><clipPath id="76dcad1bfb"><path d="M 20 98.015625 L 228.964844 98.015625 L 228.964844 150.460938 L 20 150.460938 Z M 20 98.015625 " clip-rule="nonzero"/></clipPath><clipPath id="35ea4738ae"><path d="M 3.613281 111.683594 L 32.480469 111.683594 L 32.480469 137.003906 L 3.613281 137.003906 Z M 3.613281 111.683594 " clip-rule="nonzero"/></clipPath><clipPath id="904dd21bca"><path d="M 4.757812 115.808594 C 2.421875 119.660156 4.066406 123.40625 6.136719 125.398438 L 18.234375 137.003906 L 30.074219 125.4375 C 32 123.296875 32.738281 121.027344 32.328125 118.503906 C 31.761719 115.007812 28.878906 112.292969 25.320312 111.90625 C 23.140625 111.671875 21.03125 112.289062 19.386719 113.65625 C 18.941406 114.023438 18.546875 114.4375 18.203125 114.882812 C 17.792969 114.375 17.3125 113.910156 16.769531 113.496094 C 14.878906 112.058594 12.46875 111.488281 10.15625 111.929688 C 7.964844 112.355469 5.996094 113.769531 4.757812 115.808594 Z M 4.757812 115.808594 " clip-rule="nonzero"/></clipPath><clipPath id="dda37d5f70"><path d="M 216.25 111.8125 L 241.46875 111.8125 L 241.46875 137.03125 L 216.25 137.03125 Z M 216.25 111.8125 " clip-rule="nonzero"/></clipPath><clipPath id="54a250b86b"><path d="M 228.859375 111.8125 C 221.898438 111.8125 216.25 117.457031 216.25 124.421875 C 216.25 131.386719 221.898438 137.03125 228.859375 137.03125 C 235.824219 137.03125 241.46875 131.386719 241.46875 124.421875 C 241.46875 117.457031 235.824219 111.8125 228.859375 111.8125 Z M 228.859375 111.8125 " clip-rule="nonzero"/></clipPath></defs><g clip-path="url(#f0bdaaa97c)"><g clip-path="url(#98e3f51e3b)"><path fill="#ffffff" d="M 0 0 L 248.785156 0 L 248.785156 248.785156 L 0 248.785156 Z M 0 0 " fill-opacity="1" fill-rule="nonzero"/></g></g><g clip-path="url(#9169eaa0bd)"><path fill="#000000" d="M 110.050781 55.28125 C 100.488281 55.28125 92.519531 59.003906 87.210938 65.386719 C 82.960938 70.707031 80.304688 77.089844 79.773438 84.535156 C 70.210938 85.597656 62.773438 93.578125 62.773438 103.683594 C 62.773438 107.40625 63.835938 110.597656 65.429688 113.257812 C 56.929688 114.320312 50.558594 121.238281 50.558594 129.746094 C 50.558594 136.664062 54.804688 142.511719 60.117188 145.171875 C 58.523438 147.832031 57.460938 150.492188 57.460938 154.214844 C 57.460938 159.535156 60.117188 163.789062 63.835938 166.449219 C 66.492188 168.578125 69.148438 169.640625 72.335938 170.703125 C 73.398438 176.554688 76.585938 181.34375 80.835938 185.066406 C 86.148438 189.320312 93.050781 192.511719 99.957031 193.042969 C 106.863281 194.109375 113.769531 193.042969 119.613281 188.789062 C 121.207031 187.726562 122.800781 186.128906 124.394531 184.003906 C 125.988281 186.128906 127.582031 187.726562 129.707031 188.789062 C 135.546875 192.511719 142.453125 193.578125 149.359375 192.511719 C 156.265625 191.449219 162.640625 188.789062 167.953125 184.535156 C 172.199219 180.8125 175.386719 176.023438 176.449219 170.171875 C 179.636719 169.640625 182.824219 168.046875 184.949219 165.917969 C 188.136719 163.257812 191.324219 159.003906 191.324219 153.683594 C 191.324219 150.492188 190.261719 147.300781 188.667969 144.640625 C 194.511719 141.980469 198.230469 136.128906 198.230469 129.214844 C 198.230469 120.707031 191.855469 113.789062 183.355469 112.726562 C 184.949219 110.066406 186.011719 106.34375 186.011719 103.152344 C 186.011719 93.046875 178.574219 85.066406 168.480469 84.003906 C 167.953125 76.554688 165.296875 70.171875 161.046875 64.855469 C 155.734375 58.472656 147.765625 54.75 138.203125 54.75 C 133.953125 54.75 129.707031 56.34375 126.519531 59.003906 C 125.457031 59.535156 124.925781 60.066406 123.863281 61.132812 C 123.332031 60.597656 122.800781 60.066406 122.269531 59.535156 C 119.082031 56.875 114.832031 55.28125 110.050781 55.28125 Z M 167.421875 113.257812 L 157.859375 113.257812 C 152.015625 113.257812 146.703125 115.917969 143.515625 119.109375 C 140.328125 122.832031 138.734375 127.621094 138.734375 132.40625 C 138.734375 137.195312 140.328125 141.980469 143.515625 145.703125 C 146.703125 149.429688 152.015625 151.554688 157.859375 151.554688 C 164.234375 151.554688 164.234375 141.980469 157.859375 141.980469 C 154.140625 141.980469 152.015625 140.917969 150.421875 139.320312 C 148.828125 137.726562 148.296875 135.066406 148.296875 132.40625 C 148.296875 129.746094 149.359375 127.621094 150.421875 125.492188 C 152.015625 123.898438 154.140625 122.832031 157.859375 122.832031 C 165.828125 122.832031 173.792969 122.832031 181.761719 122.832031 C 186.011719 122.832031 189.199219 126.023438 189.199219 130.28125 C 189.199219 134.535156 186.011719 137.726562 181.761719 137.726562 L 174.324219 137.726562 C 167.953125 137.726562 167.953125 147.300781 174.324219 147.300781 C 178.574219 147.300781 181.761719 150.492188 181.761719 154.746094 C 181.761719 156.34375 180.699219 157.9375 179.105469 159.535156 C 176.980469 161.128906 174.324219 162.195312 172.199219 162.195312 C 165.828125 162.195312 161.578125 160.597656 156.265625 161.128906 C 150.953125 161.128906 145.640625 163.257812 140.328125 168.578125 C 135.546875 172.832031 142.453125 180.277344 147.234375 175.492188 C 151.484375 171.238281 153.609375 170.703125 156.796875 170.703125 C 159.453125 170.703125 162.640625 171.238281 166.890625 171.769531 C 165.828125 174.429688 164.234375 176.554688 162.109375 178.683594 C 158.390625 181.875 153.609375 184.003906 148.296875 184.535156 C 142.984375 185.066406 138.203125 184.535156 135.015625 182.40625 C 131.828125 180.277344 129.707031 177.085938 129.175781 170.703125 L 129.175781 90.386719 C 129.175781 87.726562 127.050781 85.597656 124.394531 85.597656 C 121.738281 85.597656 119.613281 87.726562 119.613281 90.386719 L 119.613281 168.578125 C 119.613281 174.960938 117.488281 178.152344 114.300781 180.8125 C 111.113281 182.9375 106.332031 184.003906 101.019531 183.46875 C 95.707031 182.9375 90.929688 180.8125 87.210938 177.621094 C 85.085938 175.492188 83.492188 173.363281 82.429688 170.703125 C 86.679688 170.171875 90.398438 169.640625 92.519531 169.640625 C 95.707031 169.640625 97.832031 170.171875 102.082031 174.429688 C 106.863281 179.214844 113.769531 172.300781 108.988281 167.511719 C 103.675781 162.195312 97.832031 160.066406 93.050781 160.066406 C 87.742188 160.066406 83.492188 161.128906 77.117188 161.128906 C 74.460938 161.128906 71.804688 160.066406 70.210938 158.46875 C 68.085938 156.875 67.554688 155.277344 67.554688 153.683594 C 67.554688 149.429688 70.742188 146.238281 74.992188 146.238281 C 81.367188 146.238281 81.367188 136.664062 74.992188 136.664062 L 67.023438 136.664062 C 62.773438 136.664062 59.585938 133.472656 59.585938 129.214844 C 59.585938 124.960938 62.773438 121.769531 67.023438 121.769531 C 74.992188 121.769531 82.960938 121.769531 90.929688 121.769531 C 94.644531 121.769531 96.769531 122.832031 98.363281 124.429688 C 99.957031 126.023438 100.488281 128.683594 100.488281 131.34375 C 100.488281 134.003906 99.425781 136.128906 98.363281 138.257812 C 96.769531 139.855469 94.644531 140.917969 90.929688 140.917969 C 84.554688 140.917969 84.554688 150.492188 90.929688 150.492188 C 96.769531 150.492188 102.082031 147.832031 105.269531 144.640625 C 108.457031 140.917969 110.050781 136.128906 110.050781 131.34375 C 110.050781 126.554688 108.457031 121.769531 105.269531 118.046875 C 102.082031 114.320312 96.769531 112.195312 90.929688 112.195312 L 81.367188 112.195312 C 76.054688 112.195312 71.804688 107.9375 71.804688 102.621094 C 71.804688 97.832031 74.992188 94.109375 79.773438 93.046875 C 80.835938 96.769531 82.960938 100.492188 85.617188 103.152344 C 89.867188 108.472656 97.832031 101.023438 92.519531 96.238281 C 90.398438 94.109375 88.804688 90.917969 88.804688 87.726562 C 88.804688 80.8125 90.929688 74.429688 94.644531 70.171875 C 98.363281 65.917969 103.144531 63.257812 110.582031 63.257812 C 113.238281 63.257812 115.894531 64.324219 117.488281 65.917969 C 119.613281 67.515625 120.144531 69.109375 120.144531 70.707031 C 119.613281 77.621094 130.238281 77.621094 129.707031 70.707031 C 129.707031 68.578125 131.828125 66.449219 132.890625 65.917969 C 135.015625 64.324219 137.140625 63.789062 139.265625 63.789062 C 146.703125 63.789062 151.484375 66.449219 155.203125 70.707031 C 158.921875 74.960938 161.046875 80.8125 161.046875 88.257812 C 161.046875 91.449219 159.453125 94.640625 157.328125 96.769531 C 152.015625 101.023438 159.453125 109.003906 164.234375 103.683594 C 166.890625 101.023438 169.011719 97.300781 170.074219 93.578125 C 174.855469 94.109375 178.042969 98.363281 178.042969 103.152344 C 176.980469 109.003906 172.730469 113.257812 167.421875 113.257812 Z M 110.050781 74.429688 C 107.394531 74.429688 105.269531 76.554688 105.269531 79.214844 L 105.269531 85.066406 C 103.675781 84.535156 102.082031 84.003906 100.488281 84.003906 C 100.488281 84.003906 99.957031 84.003906 99.957031 84.003906 C 93.582031 84.535156 94.113281 94.109375 100.488281 93.578125 C 103.675781 93.578125 103.675781 94.109375 104.207031 95.703125 C 104.738281 97.300781 105.269531 100.492188 105.269531 103.152344 C 105.269531 109.535156 114.832031 109.535156 114.832031 103.152344 L 114.832031 79.214844 C 114.832031 76.554688 112.707031 74.429688 110.050781 74.429688 Z M 138.734375 74.429688 C 136.078125 74.429688 133.953125 76.554688 133.953125 79.214844 L 133.953125 103.152344 C 133.953125 109.535156 143.515625 109.535156 143.515625 103.152344 C 143.515625 100.492188 143.515625 97.832031 144.578125 95.707031 C 145.109375 94.109375 145.109375 93.578125 148.296875 93.578125 C 154.671875 93.578125 154.671875 84.003906 148.296875 84.003906 C 146.703125 84.003906 145.109375 84.535156 143.515625 85.066406 L 143.515625 79.214844 C 143.515625 76.554688 141.390625 74.429688 138.734375 74.429688 Z M 138.734375 74.429688 " fill-opacity="1" fill-rule="nonzero"/></g><g clip-path="url(#fcd92ca15e)"><path fill="#000000" d="M 124.390625 214.09375 C 173.847656 214.09375 214.09375 173.847656 214.09375 124.390625 C 214.09375 74.933594 173.847656 34.683594 124.390625 34.683594 C 74.933594 34.683594 34.683594 74.933594 34.683594 124.390625 C 34.683594 173.847656 74.933594 214.09375 124.390625 214.09375 Z M 124.390625 41.410156 C 170.171875 41.410156 207.371094 78.65625 207.371094 124.390625 C 207.371094 170.121094 170.121094 207.371094 124.390625 207.371094 C 78.65625 207.371094 41.410156 170.171875 41.410156 124.390625 C 41.410156 78.605469 78.605469 41.410156 124.390625 41.410156 Z M 124.390625 41.410156 " fill-opacity="1" fill-rule="nonzero"/></g><g clip-path="url(#76dcad1bfb)"><path fill="#64a744" d="M 171.355469 111.722656 L 175.136719 119.449219 C 176.050781 121.222656 176.925781 123 177.796875 124.816406 C 178.046875 125.386719 178.441406 125.832031 178.972656 126.15625 C 179.503906 126.484375 180.082031 126.628906 180.707031 126.59375 L 225.847656 126.59375 C 227.761719 126.59375 228.964844 125.519531 228.964844 123.910156 C 228.964844 122.296875 227.71875 121.183594 225.847656 121.183594 L 183.160156 121.183594 C 182.816406 121.21875 182.503906 121.144531 182.214844 120.957031 C 181.925781 120.773438 181.726562 120.515625 181.621094 120.191406 L 174.097656 104.910156 C 173.558594 103.792969 172.769531 103.050781 171.480469 103.007812 C 170.191406 102.96875 169.402344 103.753906 168.820312 104.824219 L 151.816406 136.257812 C 151.691406 136.546875 151.484375 136.796875 151.277344 137.167969 L 150.445312 135.640625 L 144.292969 123.164062 C 144.167969 122.851562 143.996094 122.566406 143.777344 122.308594 C 143.558594 122.050781 143.308594 121.832031 143.019531 121.65625 C 142.730469 121.476562 142.421875 121.347656 142.09375 121.265625 C 141.765625 121.1875 141.429688 121.15625 141.09375 121.183594 L 122.015625 121.183594 C 121.683594 121.203125 121.371094 121.132812 121.078125 120.976562 C 120.789062 120.820312 120.558594 120.601562 120.394531 120.316406 C 117.402344 115.976562 114.40625 111.640625 111.375 107.34375 C 109.792969 105.113281 107.382812 105.199219 106.011719 107.550781 C 103.601562 111.765625 101.148438 115.976562 98.777344 120.191406 C 98.621094 120.523438 98.382812 120.78125 98.0625 120.960938 C 97.742188 121.144531 97.398438 121.21875 97.03125 121.183594 L 87.722656 121.183594 C 85.808594 121.222656 84.8125 122.050781 84.5625 123.910156 C 84.148438 127.460938 83.730469 131.011719 83.148438 134.648438 L 82.773438 133.699219 L 71.675781 100.859375 C 71.054688 98.917969 69.515625 98.050781 67.894531 98.714844 C 66.273438 99.375 66.4375 99.910156 66.148438 100.902344 C 64.152344 107.261719 62.117188 113.582031 60.121094 119.984375 C 59.828125 120.933594 59.414062 121.222656 58.417969 121.222656 C 46.695312 121.167969 35 121.167969 23.335938 121.222656 C 22.777344 121.203125 22.238281 121.285156 21.714844 121.472656 C 21.4375 121.582031 21.1875 121.730469 20.964844 121.921875 C 20.742188 122.117188 20.554688 122.339844 20.410156 122.59375 C 20.261719 122.851562 20.160156 123.121094 20.105469 123.410156 C 20.050781 123.699219 20.046875 123.988281 20.09375 124.28125 C 20.136719 124.582031 20.230469 124.867188 20.371094 125.136719 C 20.511719 125.40625 20.695312 125.648438 20.917969 125.855469 C 21.140625 126.066406 21.390625 126.234375 21.667969 126.359375 C 21.949219 126.488281 22.238281 126.5625 22.542969 126.59375 L 61.078125 126.59375 C 63.15625 126.59375 63.902344 126.054688 64.527344 124.074219 L 68.515625 111.476562 L 68.976562 110.113281 C 69.308594 110.9375 69.558594 111.558594 69.765625 112.21875 C 73.753906 123.992188 77.746094 135.804688 81.695312 147.574219 C 81.820312 147.863281 81.859375 148.113281 81.984375 148.359375 C 82.484375 149.683594 83.566406 150.425781 84.851562 150.300781 C 85.175781 150.273438 85.484375 150.1875 85.773438 150.050781 C 86.066406 149.910156 86.324219 149.726562 86.550781 149.496094 C 86.777344 149.261719 86.953125 149 87.082031 148.707031 C 87.214844 148.410156 87.289062 148.101562 87.304688 147.78125 C 88.011719 141.792969 88.71875 135.761719 89.382812 129.773438 C 89.507812 129.019531 89.589844 128.261719 89.632812 127.5 C 89.675781 126.800781 89.964844 126.59375 90.671875 126.59375 C 93.539062 126.632812 96.410156 126.550781 99.320312 126.632812 C 99.96875 126.671875 100.574219 126.523438 101.136719 126.191406 C 101.695312 125.863281 102.117188 125.402344 102.394531 124.816406 C 104.347656 121.390625 106.34375 117.960938 108.339844 114.53125 L 108.960938 113.542969 L 109.667969 114.449219 C 112.078125 117.960938 114.574219 121.429688 116.984375 124.980469 C 117.304688 125.519531 117.742188 125.933594 118.292969 126.230469 C 118.84375 126.527344 119.433594 126.660156 120.0625 126.632812 L 138.765625 126.632812 C 139.640625 126.59375 140.054688 126.921875 140.386719 127.667969 C 143.089844 133.160156 145.789062 138.652344 148.535156 144.148438 C 149.324219 145.757812 150.820312 146.460938 152.152344 145.757812 C 152.835938 145.394531 153.363281 144.871094 153.730469 144.1875 C 158.84375 134.855469 163.871094 125.476562 168.945312 116.144531 C 169.691406 114.699219 170.480469 113.335938 171.355469 111.722656 Z M 171.355469 111.722656 " fill-opacity="1" fill-rule="nonzero"/></g><g clip-path="url(#35ea4738ae)"><g clip-path="url(#904dd21bca)"><path fill="#ff3131" d="M 3.613281 111.785156 L 32.480469 111.785156 L 32.480469 137.003906 L 3.613281 137.003906 Z M 3.613281 111.785156 " fill-opacity="1" fill-rule="nonzero"/></g></g><g clip-path="url(#dda37d5f70)"><g clip-path="url(#54a250b86b)"><path fill="#3e60f9" d="M 216.25 111.8125 L 241.46875 111.8125 L 241.46875 137.03125 L 216.25 137.03125 Z M 216.25 111.8125 " fill-opacity="1" fill-rule="nonzero"/></g></g></svg>